<?xml version="1.0" encoding="UTF-8" standalone="no"?>
<!DOCTYPE svg PUBLIC "-//W3C//DTD SVG 1.1//EN" "http://www.w3.org/Graphics/SVG/1.1/DTD/svg11.dtd">
<svg width="100%" height="100%" viewBox="0 0 512 512" version="1.1" xmlns="http://www.w3.org/2000/svg" xmlns:xlink="http://www.w3.org/1999/xlink" xml:space="preserve" xmlns:serif="http://www.serif.com/" style="fill-rule:evenodd;clip-rule:evenodd;stroke-linejoin:round;stroke-miterlimit:2;">
    <g transform="matrix(1,0,0,1,63.2615,0.723013)">
        <g transform="matrix(1.76921,0,0,1.76921,-227.725,-195.358)">
            <path d="M141.02,304.335C141.02,304.335 138.278,230.517 138.278,220.23C138.278,205.374 159.352,193.766 175.759,210.174C179.14,213.554 184.131,230.473 187.872,243.999C192.048,259.095 193.262,261.737 208.899,246.741C225.046,231.257 291.176,164.464 298.604,157.036C322.03,133.61 350.598,165.607 328.886,187.319C317.687,198.518 293.342,222.011 291.29,224.915C291.29,224.915 297.71,226.409 302.098,231.346C306.486,236.282 307.217,243.779 305.937,249.812C305.937,249.812 315.445,249.812 321.296,257.674C327.147,265.536 326.598,277.787 321.661,284.552C321.661,284.552 327.512,284.369 333.18,292.231C338.848,300.093 338.483,311.429 330.62,320.022C322.758,328.615 286.029,365.026 277.78,372.862C259.497,390.232 213.932,393.434 194.955,377.433C176.305,361.709 159.246,342.603 155.59,338.946C151.933,335.289 141.02,319.548 141.02,304.335ZM151.688,298.264C151.688,298.264 148.726,231.856 148.473,226.174C148.22,220.493 147.376,213.741 155.604,212.096C163.831,210.45 168.951,218.678 169.865,221.969C170.779,225.26 180.287,253.234 182.298,258.354C187.014,270.358 200.604,270.033 209.724,260.914C217.586,253.052 305.531,165.107 307.999,162.638C310.467,160.17 318.649,157.839 323.449,162.638C328.248,167.438 326.74,173.334 323.449,176.625C320.158,179.916 271.249,228.826 267.5,232.574C263.752,236.322 265.215,238.882 267.5,241.167C269.786,243.453 271.75,244.379 275.681,240.448C279.612,236.517 278.843,237.285 281.494,234.634C284.146,231.983 288.608,232.606 293.362,237.36C298.115,242.113 298.024,248.056 293.91,252.17C289.796,256.283 290.893,255.186 288.791,257.289C286.688,259.392 288.26,262.525 289.54,263.805C290.819,265.085 294.727,266.398 296.525,264.75C298.322,263.103 300.269,261.904 301.842,260.856C303.415,259.807 307.412,259.219 311.435,263.242C315.457,267.264 316.554,273.298 313.629,276.955C310.703,280.612 302.293,288.291 300.281,290.302C298.27,292.313 299.276,295.513 301.378,297.615C303.481,299.718 306.899,299.202 308.91,297.19C310.921,295.179 318.15,292.181 323.909,297.94C329.668,303.7 325.189,310.556 320.984,314.761C316.778,318.966 274.909,360.836 271.16,364.585C254.431,381.314 217.177,382.914 200.859,368.607C190.312,359.359 172.245,340.998 166.668,335.422C161.092,329.845 151.688,316.323 151.688,298.264Z" style="fill:rgb(249,250,251);"/>
        </g>
        <g transform="matrix(1.76921,0,0,1.76921,-227.725,-195.358)">
            <path d="M191.662,193.988C188.206,190.531 167.823,172.635 164.31,169.122C158.386,163.198 165.48,152.008 174.841,159.907C184.202,167.805 197.367,180.238 200.877,183.456C208.388,190.342 197.879,200.204 191.662,193.988Z" style="fill:rgb(249,250,251);"/>
        </g>
        <g transform="matrix(1.39988,0.888982,-0.888982,1.39988,47.1004,-348.488)">
            <path d="M191.662,193.988C188.206,190.531 167.823,172.635 164.31,169.122C158.386,163.198 165.48,152.008 174.841,159.907C184.202,167.805 197.367,180.238 200.877,183.456C208.388,190.342 197.879,200.204 191.662,193.988Z" style="fill:rgb(249,250,251);"/>
        </g>
        <g transform="matrix(0.530333,1.31689,-1.49176,0.600755,386.803,-258.689)">
            <path d="M191.662,193.988C188.206,190.531 167.823,172.635 164.31,169.122C158.386,163.198 165.48,152.008 174.841,159.907C184.202,167.805 197.367,180.238 200.877,183.456C208.388,190.342 197.879,200.204 191.662,193.988Z" style="fill:rgb(249,250,251);"/>
        </g>
    </g>
</svg>
